<svg xmlns="http://www.w3.org/2000/svg" xmlns:xlink="http://www.w3.org/1999/xlink" width="384" height="384" version="1.1" viewBox="0 0 384 384"><title>AppstoreIcon/Clock</title><desc>Created with Sketch.</desc><g id="AppstoreIcon/Clock" fill="none" fill-rule="evenodd" stroke="none" stroke-width="1"><g id="Clock" transform="translate(12.000000, 67.000000)"><path id="Fill-1" fill="#1B7FC3" d="M196.503915,228.240708 C151.234732,228.094324 114.115739,190.45785 114.042144,144.654373 C113.977945,98.7499142 151.518931,61.0132413 197.30171,60.9764495 C243.487693,60.9396576 280.817291,98.5667379 280.735085,145.094309 C280.662273,191.42931 243.212888,228.396486 196.503915,228.240708 M357.751651,140.64876 L333.806061,126.825993 C330.817657,125.093645 327.076868,127.257318 327.076868,130.703225 L327.076868,138.155527 L301.701667,138.155527 C299.179883,89.7030387 259.82409,46.3199945 212.098105,41.5260976 C204.791118,54.7703727 188.80312,53.1664056 182.90852,41.4063285 C130.140533,47.5936179 90.1145609,96.3114771 93.0943522,150.713282 C96.1195529,205.857186 142.488739,249.561181 197.741711,249.341212 C253.122299,249.130638 297.300877,206.910842 301.517681,150.914463 L327.076868,150.914463 L327.076868,158.366765 C327.076868,161.813455 330.817657,163.967734 333.806061,162.243998 L357.751651,148.422013 C360.74945,146.688883 360.74945,142.381108 357.751651,140.64876"/><path id="Fill-3" fill="#F57F20" d="M70.2719641,148.990299 C75.3499528,149.010609 79.0334314,147.076465 79.1907246,141.845841 C79.3628863,136.153553 75.5901966,134.094424 70.160059,134.165509 C60.0674684,134.298306 49.9717477,134.203786 39.8768095,134.203786 C29.5424099,134.204567 19.2064453,134.288151 8.87282834,134.167852 C3.8277069,134.110047 0.141098076,135.837965 0.00415124034,141.238882 C-0.142186236,147.011629 3.594506,149.002016 8.98473347,148.98405 C29.4132886,148.917651 49.8434089,148.909059 70.2719641,148.990299"/><path id="Fill-5" fill="#F57F20" d="M77.0043624,187.834916 C82.2335045,187.807398 86.1596705,185.816645 86.0656493,179.942667 C85.9763292,174.373749 82.0548644,172.703782 77.1853531,172.695133 C60.0962282,172.666828 43.0071034,172.686484 25.9179785,172.67705 C20.8134144,172.674691 16.38972,174.156748 16.4547513,180.078686 C16.5221331,186.245931 21.0218279,187.901746 26.4593836,187.864793 C34.6423564,187.80897 42.8261127,187.850641 51.009869,187.849068 C59.6747001,187.847496 68.3395313,187.880518 77.0043624,187.834916"/><path id="Fill-7" fill="#F57F20" d="M25.3558138,110.280948 C33.9839732,110.2208 42.612916,110.264544 51.2410755,110.266106 C59.8700183,110.26845 68.4997445,110.201271 77.1271205,110.295008 C82.055371,110.347345 85.8892381,108.863174 86.0607986,103.366274 C86.2401929,97.6498732 82.6938266,95.4533004 77.2634288,95.4697044 C60.0063266,95.5228221 42.7492244,95.5095427 25.4913387,95.478297 C20.1518132,95.4689232 16.3837501,97.6365938 16.4550377,103.265507 C16.5239753,108.677262 20.4299134,110.315318 25.3558138,110.280948"/><path id="Fill-9" fill="#F57F20" d="M97.996796,209.602319 C83.3606565,209.56768 68.7245171,209.524381 54.0891618,209.627511 C49.2266544,209.661363 45.4948897,211.79166 45.3866772,217.170938 C45.2768963,222.632877 48.8706508,224.700982 53.8680318,224.727749 C61.3049001,224.767111 68.7433367,224.737983 76.1809891,224.743494 C83.378692,224.749005 90.577179,224.742707 97.7748818,224.751366 C103.038873,224.757664 107.004315,222.746241 106.856895,216.962317 C106.722021,211.672786 102.916546,209.614128 97.996796,209.602319"/><path id="Fill-11" fill="#F57F20" d="M53.8283457,72.6567355 C61.0073068,72.6349203 68.1854859,72.6512817 75.3652291,72.6536191 C82.782733,72.6567355 90.2025831,72.5725912 97.6185227,72.6847837 C102.980649,72.7658116 106.820795,70.7229726 106.676105,65.065041 C106.543929,59.9158713 102.91417,57.837193 97.8578475,57.8605664 C83.2613825,57.9283494 68.6641354,57.8738114 54.0668883,57.8925101 C49.0997261,57.8987431 45.5317535,59.9914454 45.3886279,65.2637152 C45.2415917,70.6879125 48.7954864,72.6723178 53.8283457,72.6567355"/><path id="Fill-13" fill="#F57F20" d="M182.945526,18.0657499 C188.209478,17.9411693 193.479683,18.03911 198.746762,18.0367594 C204.49295,18.0336253 210.239138,18.0438112 215.985326,18.0304912 C221.783099,18.0171713 223.074272,14.3776936 223.082869,9.43129483 C223.092248,4.47549372 222.683481,0.0799136113 216.148677,0.086965344 C204.896246,0.098718232 193.643815,0.0900994475 182.391384,0.0806971371 C175.818283,0.0752124561 174.631842,4.17618684 174.736574,9.68123958 C174.842087,15.2685625 177.124306,18.2036504 182.945526,18.0657499"/><path id="Fill-16" fill="#F57F20" d="M239.823533,112.841138 C238.564106,111.330385 236.321996,111.129003 234.814748,112.391359 L211.561851,131.864246 C210.055385,133.126603 209.85447,135.373926 211.113116,136.884679 L212.753265,138.851479 C214.011911,140.362232 216.254802,140.563614 217.761268,139.301257 L241.014166,119.828371 C242.521414,118.566014 242.722328,116.318691 241.4629,114.807938 L239.823533,112.841138 Z"/><polygon id="Fill-18" fill="#F57F20" points="270.577 35.581 271.141 35.581 271.141 35.298 270.577 35.298"/><path id="Fill-20" fill="#F57F20" d="M201.340456,134.698538 L201.340456,77.3316262 C201.340456,75.365521 199.748051,73.7719739 197.785101,73.7719739 L196.568713,73.7719739 C194.605763,73.7719739 193.014139,75.365521 193.014139,77.3316262 L193.014139,134.698538 C188.326824,136.404792 184.972376,140.891144 184.972376,146.173486 C184.972376,152.922581 190.436741,158.392767 197.176907,158.392767 C203.917855,158.392767 209.38222,152.922581 209.38222,146.173486 C209.38222,140.891144 206.027772,136.404792 201.340456,134.698538"/><path id="Fill-21" fill="#F57F20" d="M186.961326,35.4394776 C186.961326,41.3314406 191.737369,46.1074837 197.629332,46.1074837 C203.521295,46.1074837 208.297338,41.3314406 208.297338,35.4394776 C208.297338,29.5475147 203.521295,24.7714716 197.629332,24.7714716 C191.737369,24.7714716 186.961326,29.5475147 186.961326,35.4394776"/></g></g></svg>