<svg xmlns="http://www.w3.org/2000/svg" xmlns:xlink="http://www.w3.org/1999/xlink" width="384" height="384" version="1.1" viewBox="0 0 384 384"><title>AppstoreIcon/Insured</title><desc>Created with Sketch.</desc><defs><polygon id="path-1" points=".094 .606 124.01 .606 124.01 198.519 .094 198.519"/></defs><g id="AppstoreIcon/Insured" fill="none" fill-rule="evenodd" stroke="none" stroke-width="1"><rect id="Rectangle" width="395.009" height="384" x="0" y="0"/><g id="Group-16" transform="translate(48.000000, 55.000000)"><g id="Group-3" transform="translate(175.990099, 75.345926)"><mask id="mask-2" fill="#fff"><use xlink:href="#path-1"/></mask><path id="Fill-1" fill="#1B7FC3" d="M124.009901,16.2947407 C123.527228,19.0895556 122.87599,21.8673333 122.592327,24.6821481 C121.749505,33.0414074 121.136139,41.4236296 120.273267,49.7806667 C119.412624,58.111037 118.330693,66.4191852 117.39802,74.7428889 C116.829208,79.8199259 116.27599,84.9006667 115.863119,89.9917778 C115.180693,98.3991852 111.567327,105.574 106.384158,111.966593 C97.1116337,123.401407 87.6653465,134.696222 78.230198,145.999185 C72.6846535,152.642148 67.0329208,159.198444 61.4012376,165.769556 C59.7044554,167.749556 58.575,169.742148 58.5794554,172.587333 C58.5883663,179.574 58.1977723,186.562889 57.9044554,193.548074 C57.7774752,196.56437 55.9967822,197.795481 53.0673267,197.788074 C41.1898515,197.758444 29.3116337,197.737704 17.4341584,197.808074 C15.0089109,197.822889 12.5903465,198.313259 10.1621287,198.470296 C4.82821782,198.814 2.23589109,197.396963 2.09405941,191.940667 C1.77846535,179.732519 0.375,167.551037 0.10470297,155.34363 C-0.158910891,143.448815 4.68193069,132.975481 11.2232673,123.312519 C16.4762376,115.554 23.6977723,109.805111 30.9660891,103.962148 C36.1381188,99.8043704 40.264604,94.2584444 44.4712871,89.0236296 C51.9148515,79.7606667 58.9641089,70.1828889 66.3787129,60.8962222 C70.1591584,56.1614074 74.6420792,55.1073333 80.1133663,57.0717778 C85.1688119,58.8865926 87.5858911,63.3762222 87.2190594,67.8636296 C86.8811881,71.996963 84.2606436,76.1258519 82.0262376,79.8902963 C74.8722772,91.9428889 67.4829208,103.858444 60.0445545,115.739185 C58.9366337,117.509556 57.8012376,119.154741 60.184901,120.14363 C61.1465347,120.542889 63.4358911,119.429556 64.2029703,118.353259 C68.9034653,111.757704 73.6641089,105.165111 77.7905941,98.2088148 C84.0118812,87.7214074 89.9806931,77.0636296 95.5121287,66.2021481 C97.2482673,62.7932593 97.7710396,58.5191852 97.9240099,54.6051111 C98.5002475,39.874 100.238614,25.2999259 103.289109,10.896963 C104.253713,6.34362963 105.960891,1.70955556 111.426238,0.814 C117.35198,-0.15637037 120.708416,2.22733333 124.009901,8.88733333 L124.009901,16.2947407 Z" mask="url(#mask-2)"/></g><path id="Fill-4" fill="#1B7FC3" d="M0,83.4925185 C2.39628713,80.2243704 4.30618812,76.5058519 9.13886139,76.0480741 C15.6794554,75.4288148 18.8012376,78.7673333 19.875,83.7451111 C21.8858911,93.0702963 23.2269802,102.558444 24.4440594,112.029556 C25.4985149,120.234741 25.2475248,128.671037 26.9806931,136.702889 C28.3024752,142.830296 31.2616337,148.816222 34.4881188,154.279926 C41.1898515,165.62363 48.5190594,176.599185 55.6663366,187.677704 C57.5606436,190.614741 59.7311881,193.374 61.7257426,196.145852 C65.0131188,195.257704 65.6457921,193.851037 63.9660891,191.152519 C58.2185644,181.919185 52.6344059,172.58437 46.9514851,163.310296 C43.9811881,158.46363 40.639604,153.817704 37.9975248,148.802889 C34.8111386,142.754 36.5673267,136.86437 42.1173267,133.255481 C47.4163366,129.808074 54.5101485,131.808074 58.580198,137.201407 C67.1962871,148.622148 75.6616337,160.180667 84.8079208,171.171037 C89.2262376,176.481407 94.8170792,180.919185 100.280941,185.24363 C108.92599,192.085852 115.013614,200.791778 119.339851,210.66437 C122.553713,217.998444 124.606188,225.766593 124.030693,233.994741 C123.203465,245.819185 122.560396,257.656222 121.736881,269.480667 C121.580941,271.726593 120.566584,273.194741 117.761881,273.174741 C102.169307,273.06363 86.5752475,273.111037 70.9819307,273.130296 C67.6232673,273.134 66.1381188,271.518444 66.0638614,268.191037 C65.8997525,260.954 65.7616337,253.707333 65.2299505,246.492519 C65.094802,244.659926 63.8108911,242.698444 62.5693069,241.194741 C54.8108911,231.801407 46.875,222.554 39.075,213.194741 C30.9735149,203.472519 22.6945545,193.879185 15,183.842889 C9.96311881,177.272519 8.22549505,169.245111 7.41089109,161.06363 C6.4960396,151.871778 5.41336634,142.696222 4.4970297,133.50437 C3.67425743,125.265111 3.05940594,117.00437 2.19876238,108.768815 C1.6009901,103.045111 0.741831683,97.3495556 0,91.6406667 L0,83.4925185 Z"/><path id="Fill-6" fill="#F57F20" d="M150.263243,91.0406667 L150.263243,157.129556 C155.773144,154.46437 160.890223,152.021407 165.978342,149.521407 C180.454084,142.410296 192.451114,132.44363 201.124381,118.760667 C206.471658,110.32437 208.769926,101.120667 207.696906,91.0406667 L150.263243,91.0406667 Z M149.035767,89.2428889 L149.035767,21.7095556 C131.470173,33.3947407 112.939233,41.4917778 92.2652228,43.7917778 L92.2652228,89.2428889 L149.035767,89.2428889 Z M227.228094,68.614 C227.228094,77.991037 227.242203,87.3680741 227.224381,96.7458519 C227.196906,111.088815 222.254332,123.725852 213.73255,135.090296 C200.897896,152.206593 183.959035,163.848074 164.326114,171.896963 C162.421411,172.677704 160.554579,173.588815 158.76052,174.597704 C151.678589,178.582148 144.971658,176.448074 138.217946,173.580667 C120.054579,165.870296 103.665965,155.52437 90.5082921,140.705111 C81.2543317,130.28363 74.8563119,118.292519 73.5456683,104.132519 C73.0503713,98.776963 72.8342822,93.3806667 72.8053218,88.0006667 C72.7139851,71.0977037 72.7644802,54.1932593 72.7763614,37.2895556 C72.7808168,30.5577037 77.4419554,25.3288148 84.177104,25.0214074 C98.2570545,24.3784444 111.38651,20.451037 123.720668,13.8658519 C129.793441,10.6243704 135.743688,7.09992593 141.468193,3.28288889 C149.256312,-1.90896296 153.181559,-0.420814815 159.953094,4.11696296 C173.601609,13.2628889 187.844183,21.1095556 204.465965,23.5154815 C209.014975,24.174 213.573639,24.8317778 218.075866,25.7428889 C223.852351,26.9125185 227.213243,31.2295556 227.222896,37.1502963 C227.239975,47.6377037 227.228094,58.1258519 227.228094,68.614 Z"/><path id="Fill-8" fill="#1B7FC3" d="M257.868342,122.769111 C259.364629,114.701704 260.814134,106.623926 262.384678,98.5698519 C262.890371,95.980963 263.542351,93.3920741 264.436411,90.9135556 C265.6275,87.6113333 267.894579,85.2602222 271.129975,84.3720741 C269.313639,98.5254074 267.498787,112.662444 265.660173,126.980222 C263.676015,125.90763 261.17354,124.555037 257.868342,122.769111"/><path id="Fill-10" fill="#1B7FC3" d="M28.7834406,84.2781481 C32.6960644,85.7337037 35.2742822,88.6914815 36.1705693,92.7811111 C38.1302228,101.71963 39.8314604,110.715185 41.5460644,119.705556 C41.952995,121.84037 41.6433416,123.662593 38.9715594,124.478889 C37.2042327,125.018889 35.667104,126.305556 34.317104,127.088519 C32.462896,112.744074 30.6287376,98.5588889 28.7834406,84.2781481"/><path id="Fill-12" fill="#1B7FC3" d="M43.1759406,95.2894074 C47.7242079,95.8279259 49.3838614,98.9094074 50.4479703,102.321259 C52.5828713,109.169407 54.5046535,116.083481 56.5281683,123.019037 C50.7234653,123.394593 49.2702475,121.924222 48.1779208,116.662741 C46.8160396,110.102 44.8630693,103.663481 43.1915347,97.1657037 C43.0764356,96.7227407 43.1759406,96.2242222 43.1759406,95.2894074"/><path id="Fill-14" fill="#1B7FC3" d="M243.351163,123.852074 C245.336807,116.432815 247.083342,109.852815 248.861807,103.280963 C250.116757,98.638 252.955619,95.8846667 256.575668,95.6713333 C254.944233,103.480963 253.317995,111.30763 251.673193,119.129852 C250.758342,123.479481 246.810817,122.344667 243.351163,123.852074"/></g></g></svg>